# xmcd
#
# Track frame offsets:
#	150
#	13351
#	24353
#	37455
#	50165
#	58359
#	72004
#	87342
#	98299
#	108934
#	119746
#	132196
#	146031
#	157628
#	169838
#
# Disc length: 2431 seconds
#
# Revision: 0
# Processed by: cddbd v1.5.1PL0 Copyright (c) Steve Scherf et al.
# Submitted via: audiograbber 1.81.02
#
DISCID=d3097d0f
DTITLE=TIBAGI and MILTINHO - NOVOS SUCESSOS
DYEAR=1968
DGENRE=SERTANEJO
TTITLE0=TAÇA VAZIA
TTITLE1=PÉ-DE-CEDRO
TTITLE2=ANSIEDADE
TTITLE3=CRISTO DE OURO
TTITLE4=ESQUECER-TE É INÚTIL
TTITLE5=A SAUDADE É UM CASTIGO
TTITLE6=O DESTINO NÃO QUIS NOSSO MATRIMÔNIO
TTITLE7=A MULHER DO MEU AMIGO
TTITLE8=SEPARAÇÃO
TTITLE9=MENSAGEM DE DOR
TTITLE10=BENDITO AMOR
TTITLE11=VESTIDO DE BRANCO
TTITLE12=O AMOR QUE JÁ FOI MEU
TTITLE13=DEUSA DO CASSINO
TTITLE14=CANÇÃO DA MINHA DOR
EXTD=
EXTT0=
EXTT1=
EXTT2=
EXTT3=
EXTT4=
EXTT5=
EXTT6=
EXTT7=
EXTT8=
EXTT9=
EXTT10=
EXTT11=
EXTT12=
EXTT13=
EXTT14=
PLAYORDER=
